<?xml version="1.0" encoding="UTF-8"?>
<svg id="Layer_1" data-name="Layer 1" xmlns="http://www.w3.org/2000/svg" viewBox="0 0 2458.03 1710.35">
  <defs>
    <style>
      .cls-1 {
        opacity: .7;
      }

      .cls-2 {
        fill: #545454;
      }

      .cls-2, .cls-3, .cls-4, .cls-5, .cls-6, .cls-7, .cls-8, .cls-9, .cls-10, .cls-11, .cls-12, .cls-13, .cls-14 {
        stroke-width: 0px;
      }

      .cls-3 {
        fill: #000;
      }

      .cls-15 {
        opacity: .5;
      }

      .cls-16 {
        opacity: .35;
      }

      .cls-4 {
        fill: #3d3d3d;
      }

      .cls-5 {
        fill: #8c462a;
      }

      .cls-6 {
        fill: #2b2b2b;
      }

      .cls-17 {
        opacity: .3;
      }

      .cls-7 {
        fill: #e8e8e8;
      }

      .cls-8 {
        fill: #f27e80;
      }

      .cls-9 {
        fill: #686868;
      }

      .cls-10 {
        fill: #d3d4e2;
      }

      .cls-11 {
        fill: #fff;
      }

      .cls-12 {
        fill: #9e9e9e;
      }

      .cls-13 {
        fill: #ff5c64;
      }

      .cls-14 {
        fill: #6b184e;
      }
    </style>
  </defs>
  <path class="cls-5" d="M1192.32,1230.39c-567.26,0-1027.11,214.88-1027.11,479.96h2054.22c0-265.07-459.85-479.96-1027.11-479.96Z"/>
  <g>
    <g>
      <path class="cls-4" d="M2440.07,351.77c-.31,2.35-.65,4.73-1,7.04-1.08,6.7-2.35,13.16-3.96,19.36-36.3,139.73-208.14,122.8-211.41-31.8-2.31-110.02-53.16-145.01-100.89-138.31-7.39,1.04-14.7,3.08-21.75,5.97-15.78,6.51-30.26,17.44-41.23,31.3-9.24,11.7-15.97,25.56-18.94,40.69-5.54,28.72-3.27,57.47,4.5,86.23,16.36,60.59,57.28,121.22,101.55,181.38,12.66,17.25,25.6,34.38,38.3,51.54,14.44,19.44,25.91,39.26,34.64,59.36,14.9,34.22,21.94,68.98,22.02,102.82.04,29.68-5.24,58.59-15.24,85.69-47.89,130.19-204.02,218.99-396.41,151.24l20.4-168.72c37.99,25.52,76.33,34.8,110.28,33.49,3.97-.12,7.89-.42,11.74-.85h.04c1.35-.15,2.69-.31,3.97-.54,50.7-6.85,89-36.99,97.5-68.33,26.98-98.78-110.63-267.84-154.44-362.84-81.57-176.99-14.09-342.48,130.92-399.57,19.75-7.78,40.96-13.55,63.4-17.05,12.09-1.92,24.6-3.12,37.42-3.66,9.35-.38,18.48-.38,27.33.08,193.16,9.51,276.66,208.71,261.26,335.47Z"/>
      <path class="cls-4" d="M2226.66,853.04c-47.89,130.19-204.02,218.99-396.41,151.24l20.4-168.72c37.99,25.52,76.33,34.8,110.28,33.49,47.38,67.57,195.05,98.45,265.72-16.01Z"/>
      <path class="cls-9" d="M2072.17,162.67c1.76,1.28,19.93-7.18,19.78-5.01-.56,9.53-1.3,28.73,9.1,56.37.11-.06.18-.07.3-.09,1.38-.61,2.73-1.13,4.13-1.58,1.21-.46,2.43-.84,3.65-1.22.96-.29,1.96-.6,2.97-.86.89-.24,1.83-.49,2.77-.7,2.62-.64,5.27-1.13,7.94-1.5,47.73-6.7,98.58,28.27,100.87,138.29,3.28,154.58,175.12,171.54,211.44,31.8,1.6-6.2,2.88-12.66,3.96-19.36-26.02,28.18-94.25,80.92-144.58,42.14-70.81-54.58-10.75-178.45-102.76-244.68-29.27-21.04-77.47-18.84-120.94,1.24-.17,2.5.2,4.31,1.38,5.15Z"/>
      <path class="cls-11" d="M2101.06,214.04c7.06-2.9,14.35-4.95,21.76-5.96,47.73-6.7,98.58,28.27,100.87,138.29,3.28,154.58,175.12,171.54,211.44,31.8,1.6-6.2,2.88-12.66,3.96-19.36.32-2.33.66-4.7.97-7.07,15.42-126.75-68.07-325.96-261.24-335.44-8.86-.49-17.98-.49-27.34-.1-12.81.55-25.31,1.75-37.41,3.66-10.8,9.88-35.89,45.25-38.62,77.98-.34,4.05,17.78-7.05,17.01-2.66-2.61,14.73-27.86,61.99-20.29,67.5,1.75,1.27,19.92-7.18,19.8-5.02-.55,9.54-1.32,28.72,9.09,56.37Z"/>
      <path class="cls-6" d="M1981.11,331.79c29.79,110.15,124.23,190.75,165.82,221.84-44.27-60.16-85.15-120.79-101.54-181.37-7.78-28.77-10.04-57.53-4.47-86.22,2.94-15.15,9.67-28.99,18.93-40.69,15.83-20.11,39.02-33.96,62.99-37.27,47.71-6.7,98.55,28.27,100.86,138.31,3.26,154.59,175.12,171.54,211.41,31.8,1.6-6.19,2.9-12.68,3.95-19.37-26,28.2-94.25,80.94-144.56,42.15-70.8-54.58-10.77-178.44-102.78-244.65-70.1-50.45-249.25,32.66-210.62,175.49Z"/>
      <path class="cls-10" d="M2072.17,162.67c1.76,1.28,19.93-7.18,19.78-5.01-.56,9.53-1.3,28.73,9.1,56.37.11-.06.18-.07.3-.09,1.38-.57,2.74-1.09,4.13-1.58,1.21-.46,2.43-.84,3.65-1.22.96-.29,1.96-.6,2.97-.86.93-.25,1.87-.5,2.77-.7,2.62-.64,5.27-1.13,7.94-1.5,47.73-6.7,98.58,28.27,100.87,138.29,3.28,154.58,175.12,171.54,211.44,31.8,1.6-6.2,2.88-12.66,3.96-19.36-26.02,28.18-94.25,80.92-144.58,42.14-70.81-54.58-10.75-178.45-102.76-244.68-29.27-21.04-77.47-18.84-120.94,1.24-.17,2.5.2,4.31,1.38,5.15Z"/>
      <path class="cls-3" d="M1959.42,1043.13c-43.49,0-88.93-7.78-134.44-23.81-8.31-2.92-12.67-12.03-9.74-20.34,2.92-8.31,12.03-12.67,20.34-9.74,136.58,48.12,271.74,15.63,344.31-82.77,64.31-87.2,61.47-199-7.39-291.77-4.79-6.45-9.6-12.9-14.42-19.36-75.45-101.09-153.46-205.61-132.8-312.33,10.45-54.02,63.86-95.85,116.54-91.35,22.23,1.89,94.98,18.63,97.85,154.4,1.58,75.09,44.17,106.65,80.15,110.86,37.87,4.41,83.43-19.45,99.88-82.77,16.78-64.62.34-171.44-63.55-250.56-35.63-44.13-99.93-95.82-203.99-91.44-92.9,3.9-171.25,47.15-214.94,118.65-47.66,78-48.74,179.7-2.96,279.03,12.15,26.36,32.35,59.58,53.73,94.75,57.51,94.59,122.7,201.8,101.64,278.93-8.09,29.63-36.66,56.8-74.57,70.93-55.18,20.56-118.33,11.23-173.26-25.62-7.31-4.9-9.27-14.81-4.36-22.12s14.82-9.26,22.12-4.36c46.3,31.05,98.92,39.15,144.37,22.22,28.03-10.44,49.59-29.85,54.94-49.45,17.44-63.89-46.64-169.28-98.13-253.96-21.88-35.98-42.54-69.96-55.45-97.97-50.3-109.16-48.58-221.78,4.72-309.01C1959.32,53.44,2047.09,4.64,2150.8.29c117.25-4.89,189.9,53.44,230.13,103.27,63.25,78.32,91.88,192.89,69.61,278.62-21.27,81.9-82.82,112.47-134.45,106.43-52.56-6.15-106.44-52.4-108.33-141.86-1.56-73.67-27.23-119.77-68.67-123.3-36.61-3.09-75.15,27.55-82.52,65.63-17.98,92.88,55.75,191.67,127.05,287.2,4.84,6.48,9.67,12.96,14.47,19.43,76.37,102.88,79.29,232.29,7.45,329.71-56.5,76.6-146.17,117.73-246.13,117.73Z"/>
    </g>
    <path class="cls-4" d="M1826.01,1382.04c-33.33,12.72-68.45,22.08-104.44,28.74-96.91,17.9-200,15.95-290.81,6.62-91.57-9.41-170.62-26.35-218.18-38.11-30.1-7.42-47.6-12.76-47.6-12.76,0,0-326.09-553.04-51.3-595.33,42.57-6.54,88.1-18.1,135.62-30.93,189.83-51.46,411.04-123.9,598.52,18.82,216.5,164.84,209.77,534.42-21.81,622.96Z"/>
    <path class="cls-4" d="M1419.31,1049.97c0,147.1-84.99,273.55-206.74,329.32-30.1-7.42-47.6-12.76-47.6-12.76,0,0-326.09-553.04-51.3-595.33,42.57-6.54,88.1-18.1,135.62-30.93,101.77,62.63,170.02,177.87,170.02,309.7Z"/>
    <g class="cls-15">
      <path class="cls-12" d="M2004.32,1112.6c-6.86-112.82-59.08-228.46-156.51-302.65-234.36-178.43-521.46-20.57-734.14,12.12-72.35,11.16-103.05,57.68-108.99,120.23-7.06-87.26,18.1-157.1,108.99-171.1,212.67-32.69,499.78-190.55,734.14-12.12,112.18,85.39,164.4,225.75,156.51,353.52Z"/>
    </g>
    <path class="cls-11" d="M1721.56,1410.78c-96.91,17.9-200,15.95-290.81,6.62l34.16-108.11,4.98-15.83s118.92,3.11,147.06-71.48c14.15-37.55,51.98,45.49,86.07,137.17,6.38,17.14,12.6,34.6,18.54,51.62Z"/>
    <path class="cls-10" d="M1721.56,1410.78c-96.91,17.9-200,15.95-290.81,6.62l34.16-108.11c21.49,23.72,70.88,53.54,151.52-31.73l86.58,81.6c6.38,17.14,12.6,34.6,18.54,51.62Z"/>
    <path class="cls-3" d="M1548.53,1444.54c-172.94,0-326.65-43.08-385.31-61.85l-2.91-.92c-3.82-1.16-7.05-3.72-9.08-7.15-9.17-15.55-223.75-382.84-146.82-545.12,19.55-41.23,55.49-66.14,106.82-74.04,51.3-7.89,107.2-23.25,166.39-39.5,185.96-51.08,396.74-108.96,579.85,30.46,118.78,90.44,181.33,247.59,159.37,400.35-17.35,120.64-84.83,211.82-185.15,250.17-92.1,35.2-190.42,47.61-283.18,47.61ZM1175.69,1353.19c91.1,28.85,393.11,110.1,644.63,13.95,89.18-34.09,149.31-116.07,164.97-224.92,20.35-141.49-37.4-286.9-147.12-370.44-170.56-129.88-373.26-74.2-552.09-25.08-60.1,16.51-116.87,32.1-169.99,40.27-40.81,6.28-67.91,24.66-82.86,56.18-65.18,137.49,116.55,464.67,142.46,510.03Z"/>
    <path class="cls-11" d="M497.39,1363.37c-52.86,40.9-97.26,179.19-1.26,220.04,106.98,45.52,165.55-87.6,143.06-164.87-22.49-77.28-88.94-96.07-141.8-55.17Z"/>
    <path class="cls-10" d="M496.14,1583.39c-41.22-17.54-56.57-53.06-56.45-91.09,7.18,6.3,15.79,11.72,25.95,16.07,95.71,40.7,152.64-61.47,147.54-138.81,11.04,12.24,20.05,28.58,25.99,48.99,22.52,77.26-36.08,210.36-143.03,164.84Z"/>
    <path class="cls-3" d="M525.73,1495.73c16.1,28.74,49.05,31.55,78.71,27.73,0,0,13.3-2.07,13.3-2.07,22.85-3.63,26.63,30.3,3.5,31.7-31.22.85-65.93-1.22-90.67-22.99-7.97-6.87-14.32-17.33-18.49-26.2-4.35-8.79,8.01-16.14,13.65-8.17h0Z"/>
    <path class="cls-3" d="M539.7,1608.87c-16.11,0-32.86-3.58-49.82-10.79-37.24-15.84-59.71-45.87-64.99-86.84-8.1-62.87,26.25-132.26,62.73-160.49h0c29.41-22.76,64.06-30.02,95.07-19.94,33.88,11.02,59.38,40.59,71.79,83.26,17.19,59.07-1.15,129.3-43.61,166.99-20.79,18.45-45.14,27.81-71.18,27.81ZM507.14,1375.98h0c-29.04,22.48-56.98,81.88-50.62,131.19,3.81,29.53,19.23,50.24,45.85,61.56,41.55,17.68,70.43,3.49,87.35-11.52,33.72-29.93,48.08-86.38,34.16-134.22-9.38-32.22-27.5-54.19-51.04-61.84-21.12-6.87-44.45-1.6-65.69,14.83Z"/>
    <g class="cls-17">
      <path class="cls-14" d="M354.49,1190.57c.35.45.66.94,1.01,1.39l-1.17-1.53s.12.06.16.13Z"/>
      <path class="cls-14" d="M1481.83,1071.37l-.83,1.74c.25-.51.45-1.06.7-1.58.03-.08.1-.12.13-.16Z"/>
    </g>
    <path class="cls-3" d="M258.51,1056.66c-52.95-42.41-116.7-71.59-183-85.77-22.56-5.22-45.6-7.48-68.65-10.21-4.35-.6-7.39-4.62-6.79-8.98.56-4,3.99-6.89,7.92-6.87,5.95.02,11.92.03,17.88.18,65.9,1.24,132.17,19.43,188.34,54.27,20.52,12.91,39.46,27.53,55.92,46.45,2.89,3.32,2.54,8.34-.78,11.23-3.2,2.79-7.88,2.49-10.84-.31h0Z"/>
    <path class="cls-3" d="M255.96,1147.63c-75-22.32-160.29-32.44-232.15,5.19-8.78,4.6-16.46-7.99-8.24-13.65,53.79-37.06,124.3-42.25,186.64-27.88,20.87,4.89,40.86,11.64,60.24,21.77,3.91,2.04,5.42,6.86,3.38,10.77-1.89,3.63-6.15,5.15-9.86,3.8h0Z"/>
    <path class="cls-4" d="M366.89,819.82l165.03-159.95,190.71-184.79c-123.37-107.68-358.09-216.91-423.47-169.42-12.38,9.02-21.06,27.97-26.08,54.25-18.89,98.58,13.47,299.7,93.8,459.92Z"/>
    <path class="cls-2" d="M366.89,819.82l165.03-159.95c-56.19-111.85-194.68-366.71-258.83-299.97-18.89,98.58,13.47,299.7,93.8,459.92Z"/>
    <g class="cls-15">
      <path class="cls-11" d="M271.17,371.52c5.01-15.07,11.87-26.18,20.48-32.45,62.94-45.77,282.66,53.71,409.07,157.24l21.92-21.25c-123.37-107.68-358.09-216.91-423.47-169.42-14.13,10.26-23.44,33.58-28.01,65.88Z"/>
    </g>
    <path class="cls-3" d="M366.91,835.76c-5.84,0-11.47-3.22-14.27-8.8-47.85-95.42-82.72-212.94-95.66-322.41-6.15-52.04-15.27-176.84,32.81-211.78,77.3-56.16,322.23,64.58,443.33,170.3,6.64,5.79,7.32,15.86,1.53,22.5-5.79,6.63-15.86,7.32-22.5,1.53-129.51-113.05-352.07-205.98-403.61-168.52-47.15,34.27-29.06,291.35,72.61,494.1,3.95,7.87.77,17.45-7.1,21.4-2.29,1.15-4.73,1.7-7.14,1.7Z"/>
    <path class="cls-8" d="M365.9,649.06c32.62-52.95,60.58-89.54,85.36-117.22,21.74-24.21,41.02-41.53,58.88-56.87-6.78-22.74-162.39-138.84-181.93-96.52-5.85,12.65-9.1,31.43-10.04,53.53-3.02,68.44,15.91,168.68,47.73,217.08Z"/>
    <path class="cls-13" d="M318.18,431.98c8.52-12.73,21.86-28.08,35.35-25.91,22.96,3.71,76.57,74.8,97.74,125.77,21.74-24.21,41.02-41.53,58.88-56.87-6.78-22.74-162.39-138.84-181.93-96.52-5.85,12.65-9.1,31.43-10.04,53.53Z"/>
    <path class="cls-3" d="M366.36,678.73l-13.76-20.92c-44.13-67.06-65.92-227.46-38.86-286.05h0c3.49-7.55,12.76-19.95,35.89-18.31,51.5,3.72,167.71,89.76,175.8,116.98l2.94,9.9-7.84,6.73c-38.77,33.29-81.59,73.86-141.04,170.33l-13.13,21.32ZM342.51,385.53c-18.09,40.12-6.49,162.77,24.48,231.97,49.15-75.86,87.31-114.61,121.79-145.06-21.03-21.9-85.27-70.38-127.72-84.12-12.13-3.93-17.24-3.14-18.55-2.78ZM328.21,378.45l14.47,6.68s.01-.02.02-.03l-14.49-6.65Z"/>
    <path class="cls-4" d="M865.81,479.26l271.7,234.14,117.42,101.18c79.36-171.11,101.1-385.93,69.93-477.68-6.41-18.88-15.06-32.51-25.9-39.54-70.7-45.78-310.01,70.43-433.15,181.91Z"/>
    <path class="cls-2" d="M1137.51,713.4l117.42,101.18c79.36-171.11,101.1-385.93,69.93-477.68-23.91-26.6-61.19-44.62-90.65,46.43-30.57,94.29-72.78,243.87-96.7,330.07Z"/>
    <path class="cls-12" d="M865.81,479.26l17.13,14.75c127.77-105.04,362.96-202.92,413-179.35,40.67,19.16,41.93,158.55,29.38,270.62,24.31-138.94,14.77-261.32-26.35-287.93-70.7-45.78-310.01,70.43-433.15,181.91Z"/>
    <path class="cls-3" d="M1254.9,830.53c-2.25,0-4.53-.48-6.7-1.48-7.99-3.71-11.46-13.19-7.76-21.17,95.54-205.97,100.9-464.1,49.85-497.14-57.28-37.06-281.58,60.7-413.8,180.35-6.53,5.91-16.61,5.41-22.52-1.12-5.91-6.53-5.41-16.61,1.12-22.52,120.72-109.25,369.42-237.26,452.52-183.48,51.75,33.49,48.67,158.86,44.95,211.21-7.84,110.18-38.16,229.04-83.19,326.12-2.7,5.82-8.46,9.24-14.48,9.24Z"/>
    <g class="cls-1">
      <path class="cls-11" d="M976.91,404.24c5.8,2.2,3.43,10.96-2.67,9.87-41.98-7.48-82.35-11.06-118.89-10.36-42.02.82-96.7,4.87-158.62,16.04-.22-15.52.56-30.86,2.35-46,53.52-6.11,100.32-5.67,135.04-3.26,43.27,2.98,93.12,14.85,142.81,33.71Z"/>
    </g>
    <path class="cls-4" d="M821.01,1451.57h0c35.29-2.74,70.43-7.47,105.14-14.43,290.82-58.29,409.48-185.4,443.83-276.71,1-2.72,1.96-5.43,2.91-8.18.53-1.57,1.01-3.18,1.51-4.73,1.3-4.05,2.57-8.1,3.61-12.23.58-2.31,1.16-4.62,1.74-6.93.06-.18.08-.35.1-.52.07-.39.17-.79.29-1.15.4-1.87.82-3.71,1.19-5.57.52-2.24.96-4.48,1.36-6.72.41-2.08.76-4.13,1.1-6.18.42-2.52.84-5.05,1.18-7.58.61-4.44,1.14-8.98,1.61-13.49.14-1.46.29-2.92.37-4.44.19-1.56.3-3.13.39-4.73.16-1.87.27-3.8.38-5.69,3.78-69.27-12.16-143.37-35.47-212.87-23.16-69.07-53.56-133.63-79.06-184.41,0,0-37.11-65.08-121.62-147.02-72.1-69.89-137.66-106.47-155.39-115.69-3.05-1.61-4.69-2.38-4.69-2.38-54.43-22.15-109.87-36.13-157.4-39.41-76.69-5.3-212.43-1.08-348.99,62.24-106.92,49.53-170.87,130.23-209.87,214.53-56.66,122.38-60.66,252.28-67.09,305.17-1.76,14.11-25.74,52.44-37.49,106.15v.04c-.91,4.11-1.69,8.29-2.43,12.57-.34,2.05-.68,4.11-.98,6.18-.34,2.17-.65,4.33-.9,6.52-.02.05-.05.1-.02.17-.21,1.85-.46,3.71-.64,5.62-.09,1.04-.2,2.12-.31,3.21-.3,3.69-.59,7.42-.74,11.22-.13,2.3-.18,4.62-.22,6.97-.04,1.87-.06,3.81-.04,5.74,0,.84,0,1.74.01,2.62.03,1.96.1,3.92.17,5.87.07,2.43.23,4.88.42,7.31.3,4.86.81,9.84,1.45,14.86.34,2.5.7,4.96,1.1,7.52v.04c.37,2.21.73,4.43,1.19,6.69.14.64.24,1.29.39,1.96.43,2.19.92,4.44,1.41,6.69.82,3.55,1.68,7.12,2.68,10.73,30.21,109.75,178.73,213.32,415.75,258.3,76.43,14.51,154.54,18.15,232.1,12.13Z"/>
    <path class="cls-11" d="M269.69,1310.75c71.78,55.73,179.55,101.96,317.38,128.35,77.03,14.74,155.76,18.54,233.95,12.47h0c35.29-2.74,70.43-7.47,105.14-14.43,290.83-58.29,409.48-185.4,443.84-276.71,1-2.72,1.96-5.43,2.91-8.18.53-1.57,1.01-3.18,1.51-4.73,1.3-4.05,2.57-8.1,3.61-12.23.58-2.31,1.16-4.62,1.74-6.93.06-.18.08-.35.1-.52.51-2.27,1.04-4.47,1.48-6.72.52-2.24.96-4.48,1.36-6.72.41-2.08.76-4.13,1.1-6.18.42-2.52.84-5.05,1.18-7.58.61-4.44,1.14-8.98,1.61-13.49.14-1.46.29-2.92.37-4.44.19-1.56.3-3.13.39-4.73.16-1.87.27-3.8.38-5.69-14.81,10.98-31.53,22.7-50.06,34.48-79.45,50.76-191.01,103.1-317.51,104.3-191.73,1.88-271.71-110.76-312.44-141.92-34.24-26.19-106.91-31.64-141.79,11.08-42.84,52.47-132.8,92.84-227.27,89.7-70.62-2.35-137.27-32.72-168-111.29-.92,4.11-1.7,8.29-2.45,12.57-.34,2.05-.68,4.11-.98,6.18-.34,2.17-.65,4.33-.9,6.52-.02.05-.05.1-.02.17-.21,1.85-.46,3.71-.64,5.62-.09,1.04-.2,2.12-.31,3.21-.3,3.69-.56,7.41-.74,11.22-.13,2.3-.18,4.62-.22,6.97-.04,1.87-.06,3.81-.04,5.74,0,.84,0,1.74.01,2.62.03,1.96.1,3.92.17,5.87.07,2.43.23,4.88.42,7.31.3,4.86.81,9.84,1.45,14.86.34,2.5.7,4.96,1.1,7.52v.04c.37,2.21.73,4.43,1.19,6.69.14.64.24,1.29.39,1.96.43,2.19.92,4.44,1.41,6.69.82,3.55,1.68,7.12,2.68,10.73,12.52,45.52,45.39,89.96,96.53,129.61Z"/>
    <path class="cls-10" d="M1384.92,1100.8c-.29,2.5-.71,4.97-1.13,7.43-.34,2.05-.69,4.09-1.11,6.18-.38,2.25-.8,4.51-1.35,6.72-.42,2.25-.97,4.43-1.48,6.73,0,.17-.04.33-.08.5-.59,2.34-1.18,4.64-1.77,6.94-1.02,4.14-2.29,8.19-3.6,12.25-.52,1.55-.99,3.14-1.51,4.73-.96,2.72-1.91,5.44-2.91,8.16-34.34,91.29-153.02,218.39-443.85,276.68-34.69,6.99-69.84,11.7-105.1,14.45-78.21,6.04-156.95,2.27-233.94-12.48-137.87-26.38-245.62-72.62-317.42-128.34-51.11-39.67-83.98-84.08-96.51-129.64-1.01-3.61-1.86-7.17-2.66-10.7-.49-2.24-.99-4.52-1.44-6.68-.14-.71-.27-1.33-.41-1.99-.45-2.24-.82-4.48-1.14-6.68l-.04-.04c-.23-1.45-.42-2.91-.65-4.32,16.56,20.81,125.3,189.23,406.81,209.54,575.94,41.57,753.2-169.58,811.3-259.44Z"/>
    <path class="cls-3" d="M1280.33,671.44c71.88,133.71,143.5,291.42,117.82,447.05-22.75,126.53-135.43,213.02-244.74,264.16-111.34,50.58-231.22,80-352.95,87.47-41.1,1.35-82.22.72-123.27-1.38-45.74-3.29-91.27-11.15-135.74-21.28-155.69-36.19-379.93-124.54-393.75-309.59-6.13-63.37,15.16-124.47,40.96-180.61.99-3.33,2.16-4.73,2.45-8.02,0,0,1.36-12.4,1.36-12.4,19.98-269.9,109.89-484.03,392.47-557.42,84.34-22.78,172.52-30.53,259.48-21.52,52.19,6.37,102.55,22.72,150.06,44.67,8.98,4.64,3.44,17.8-6.01,14.77-63.26-22.21-129.42-35.91-196.65-33.85-100.29,1.06-200.92,19.43-292.44,60.73-161.23,68.93-238.22,228.71-261.33,395.04-5.83,37.35-8.63,75.77-12.65,114.09-1.73,14.06-9.94,28.18-14.83,40.66-32.93,71.98-43.34,160.4.98,229.48,72.42,107.51,215.79,160.1,337.81,189.74,49.07,11.24,98.53,19.94,148.73,21.83,33.69,1.38,67.58,1.81,101.24.81,49.63-2.11,100.36-10.17,149.02-20.66,179.24-39.94,418.93-137.84,423.9-351.13,2.84-135.66-51.88-263.27-106.18-385.45-4.16-9.09,9.2-16.04,14.25-7.15h0Z"/>
    <path class="cls-8" d="M1087.54,473.07c41.59,31.81,90.5,72.51,159.56,170.33,3.3-5.29,6.43-11.2,9.31-17.59,20.38-44.58,31.38-113.12,30.83-170.13-.32-35.49-5.07-66.51-14.83-84.56-22.59-41.85-178.99,78.97-184.87,101.95Z"/>
    <path class="cls-13" d="M1087.54,473.07c41.59,31.81,90.5,72.51,159.56,170.33,3.3-5.29,6.43-11.2,9.31-17.59-6.51-40.7-40.53-83.94-54.33-118.05-28.63-70.78,24.62-117.2,45.43-110.49,12.33,3.98,31.76,41.8,39.73,58.41-.32-35.49-5.07-66.51-14.83-84.56-22.59-41.85-178.99,78.97-184.87,101.95Z"/>
    <path class="cls-3" d="M1247.09,659.35c-5.17,0-10.03-2.51-13.02-6.75-67.09-95.06-113.95-134.55-156.2-166.85-5.08-3.88-7.35-10.42-5.76-16.61,6.96-27.26,120.52-115.46,175.42-122.22,24.44-3.02,34.87,9.13,38.92,16.63h0c31.32,58.02,16.84,219.67-25.81,288.28-2.82,4.54-7.73,7.36-13.08,7.52-.15,0-.31,0-.47,0ZM1109.14,469.63c37.76,29.69,79.86,67.69,135.57,143.22,29.12-70.15,34.94-194.75,13.67-234.15h0l-.03-.05c-.06.07-.95-.34-3.29-.34-2.6,0-6.94.47-13.7,2.53-42.76,12.99-110.43,65.31-132.22,88.8Z"/>
    <path class="cls-3" d="M1206.35,1080.88c67.9-53.86,158.59-70.53,243.24-63.62,12.07.99,24.06,3.21,36.04,4.95,4.34.68,7.31,4.75,6.63,9.1-.66,4.27-4.57,7.1-8.74,6.71-11.73-.28-23.35-1.48-35-1.52-57.75-1.12-115.94,7.94-170.11,28.22-21.61,7.94-43.22,17.57-63,29.18-8.29,4.75-16.47-6.83-9.06-13.02h0Z"/>
    <path class="cls-3" d="M1199.85,1169.75c82.38-25.46,182-14.27,246.58,46.17,7.15,6.92-2.31,18.13-10.32,12.16-65.98-49.52-153.28-53.26-232.19-42.91-9.67,1.81-13.44-12.24-4.07-15.42h0Z"/>
    <g>
      <path class="cls-3" d="M341.81,757.46c-6.75-9.03,34.62-117.2,112.82-100.13,28.65,6.25,25.77,31.35,10.13,40.36-14.88,8.57-38.82,9.78-58,19.49-37.41,18.94-58.2,49.3-64.95,40.27Z"/>
      <path class="cls-3" d="M983.95,726.55c6-10.9-55.77-122.81-138.64-92.19-30.36,11.22-23.37,38.21-4.9,45.66,17.58,7.1,43.92,4.75,66.38,12.44,43.79,14.98,71.16,44.98,77.16,34.09Z"/>
    </g>
    <g>
      <ellipse class="cls-3" cx="437.31" cy="1005.78" rx="106.54" ry="89.54" transform="translate(-618.8 1301.54) rotate(-82.15)"/>
      <ellipse class="cls-11" cx="466.95" cy="987.57" rx="45.09" ry="31.67" transform="translate(-575.16 1315.18) rotate(-82.15)"/>
      <g class="cls-16">
        <ellipse class="cls-11" cx="400.63" cy="1037.89" rx="22.6" ry="36.21" transform="translate(-301.18 174.65) rotate(-18)"/>
      </g>
    </g>
    <g>
      <ellipse class="cls-3" cx="880.29" cy="1012.41" rx="95.13" ry="113.19" transform="translate(-130.09 129.79) rotate(-7.85)"/>
      <ellipse class="cls-11" cx="848.79" cy="993.06" rx="33.65" ry="47.9" transform="translate(-127.74 125.31) rotate(-7.85)"/>
      <g class="cls-16">
        <ellipse class="cls-11" cx="919.25" cy="1046.52" rx="38.47" ry="24.01" transform="translate(-360.16 1597.29) rotate(-72)"/>
      </g>
    </g>
    <path class="cls-4" d="M1258.9,1536.95c-24.6.96-50.43-2.55-73.35-7.18-37.67-7.57-67.45-18.1-70.56-16.46-5.06,2.59-21.49,86.39-106.68,86.35-61.75-.04-107.75-37.19-119.03-87.82-4.07-17.98-3.71-37.67,1.87-57.96,8.21-29.9,19.17-56.25,34.32-78.53,35-51.42,92.53-81.36,191.51-83.79,49.11-1.2,104.09,9.13,188.52,37.27l164.4-35.36c.56,6.26,1,12.36,1.28,18.34,7.45,147.94-61.51,219.21-212.28,225.15Z"/>
    <path class="cls-6" d="M1258.9,1536.95c-24.6.96-50.43-2.55-73.35-7.18-37.67-7.57-67.45-18.1-70.56-16.46-5.06,2.59-21.49,86.39-106.68,86.35-61.75-.04-107.75-37.19-119.03-87.82,24.08,21.13,61.03,38.19,114.29,26.31,111.42-24.84,70.5-96.8,121.84-110.83,50.83-13.83,288.04,120.36,345.76-115.52,7.45,147.94-61.51,219.21-212.28,225.15Z"/>
    <path class="cls-7" d="M1185.55,1529.78c-37.67-7.57-67.45-18.1-70.56-16.46-5.06,2.59-21.49,86.39-106.68,86.35-2.51,0-4.98-.08-7.45-.2-1.75-.08-3.51-.2-5.26-.36-1.51-.12-3.03-.28-4.54-.48-1.4-.16-2.79-.32-4.19-.56-.8-.08-1.63-.24-2.43-.4-1.12-.16-2.19-.36-3.31-.56-.6-.12-1.16-.24-1.75-.36-1.2-.24-2.43-.52-3.63-.8-5.46-1.28-10.68-2.87-15.75-4.78-1.12-.4-2.19-.8-3.27-1.28-.52-.2-1.08-.4-1.59-.64-1-.4-1.95-.84-2.91-1.28-.92-.4-1.79-.84-2.67-1.28-1.36-.64-2.71-1.32-4.03-2.03-1.16-.6-2.27-1.24-3.39-1.87-1.44-.8-2.87-1.67-4.27-2.55-.32-.2-.64-.4-.92-.6-1.12-.72-2.19-1.44-3.27-2.19-1.51-1-2.99-2.07-4.42-3.23-.2-.12-.4-.28-.6-.48-1.12-.84-2.27-1.75-3.35-2.71-1.79-1.47-3.59-3.07-5.3-4.74-.84-.76-1.63-1.55-2.43-2.39-.56-.52-1.08-1.08-1.55-1.63-3.43-3.59-6.54-7.41-9.41-11.44-.76-1-1.44-2.03-2.15-3.11-.2-.32-.44-.68-.68-1.04-.68-1.08-1.35-2.15-1.95-3.23-.2-.28-.36-.56-.56-.88-.6-1.04-1.2-2.07-1.71-3.15-1.08-1.91-2.03-3.83-2.95-5.82-.52-1.16-1.04-2.31-1.51-3.47-.64-1.43-1.2-2.91-1.75-4.42-1.12-2.99-2.07-6.06-2.91-9.17-.44-1.55-.8-3.11-1.16-4.7,24.08,21.13,61.03,38.19,114.29,26.31,111.42-24.84,70.48-96.79,121.83-110.82,3.71-1,8.37-1.24,13.87-.84,7.34,39.55,12.28,80.61,46.28,103.29Z"/>
    <path class="cls-11" d="M1185.55,1529.78c-37.67-7.57-67.45-18.1-70.56-16.46-5.06,2.59-21.49,86.39-106.68,86.35-83.64-.04-138.45-68.29-117.16-145.78,8.21-29.9,19.17-56.25,34.32-78.53,36.72-35.04,101.73-78.29,169.94-34.4,64.02,41.22,26.99,146.74,90.13,188.84Z"/>
    <path class="cls-10" d="M1185.55,1529.78c-37.67-7.57-67.45-18.1-70.56-16.46-5.06,2.59-21.49,86.39-106.68,86.35-2.51,0-4.98-.08-7.45-.2-1.75-.08-3.51-.2-5.26-.36-1.51-.12-3.03-.28-4.54-.48-1.4-.16-2.79-.32-4.19-.56-.8-.08-1.63-.24-2.43-.4-1.12-.16-2.19-.36-3.31-.56-.6-.12-1.16-.24-1.75-.36-1.2-.24-2.43-.52-3.63-.8-5.46-1.28-10.68-2.87-15.75-4.78-1.12-.4-2.19-.8-3.27-1.28-.52-.2-1.08-.4-1.59-.64-1-.4-1.95-.84-2.91-1.28-.92-.4-1.79-.84-2.67-1.28-1.36-.64-2.71-1.32-4.03-2.03-1.16-.6-2.27-1.24-3.39-1.87-1.44-.8-2.87-1.67-4.27-2.55-.32-.2-.64-.4-.92-.6-1.12-.72-2.19-1.44-3.27-2.19-1.51-1.04-2.99-2.11-4.42-3.23-.2-.12-.4-.28-.6-.48-1.12-.84-2.27-1.75-3.35-2.71-1.79-1.47-3.59-3.07-5.3-4.74-.84-.76-1.63-1.55-2.43-2.39-.56-.52-1.08-1.08-1.55-1.63-3.43-3.59-6.54-7.41-9.41-11.44-.76-1-1.44-2.03-2.15-3.11-.2-.32-.44-.68-.68-1.04-.68-1.08-1.35-2.15-1.95-3.23-.2-.28-.36-.56-.56-.88-.6-1.04-1.2-2.07-1.71-3.15-1.08-1.91-2.03-3.83-2.95-5.82-.52-1.16-1.04-2.31-1.51-3.47-.64-1.43-1.2-2.91-1.75-4.42-1.12-2.99-2.11-6.02-2.91-9.17-.44-1.55-.8-3.11-1.16-4.7,24.08,21.13,62.49,41.16,116.54,33.71,93.8-12.94,68.23-104.19,119.57-118.22,3.71-1,8.37-1.24,13.87-.84,7.34,39.55,12.28,80.61,46.28,103.29Z"/>
    <path class="cls-3" d="M1302.98,1336.39c-69.28-13.12-137.81-33.3-208.59-27.74-40.12,3.04-82.38,12.19-115.25,34.87-39.25,26.03-61.38,71.51-73.03,116.35-17.53,61.81,15.97,113.01,80.16,122.18,58.57,9.46,92.55-18.76,112.21-72.15.65-1.55,2.66-5.43,4.65-7.36,2.3-2.9,8.44-5.54,12.24-5.35,3.92-.12,7.81.86,10.08,1.33,3.58.9,12.71,3.15,16.36,4.19,46.83,12.99,95.5,22.32,143.98,15.59,89.09-9.26,152.13-47.65,168.64-140.37,5.56-27.41,6.76-55.7,7.55-83.89.14-4.42,3.85-7.89,8.27-7.75,3.81.12,6.91,2.89,7.61,6.48,5.63,28.98,7.69,59.01,4.47,89.37-3.32,30.15-12.44,61.25-30.85,87.69-45.56,67.16-132.14,84.43-207.71,83.65-37.55-1.29-74.38-10.02-110.28-19.84-4.2-1.24-14.18-3.83-17.92-4.58,0,0,.84,0,.84,0,3.95.03,9.28-3.01,11.18-6.22.58-.97.11-.19-.07.28-16.38,44.49-48.3,83.61-97.84,90.81-47.96,6.59-100.97-7.18-133.19-45.23-33.4-38.35-31.51-93.72-14.7-138.72,14.34-44.06,40.05-86.59,79.37-112.8,69.78-47.51,185.94-51.5,264.61-27.41,28.41,8.37,55.81,18.93,82.27,31.48,8.44,4.12,4.14,16.95-5.04,15.13h0Z"/>
    <path class="cls-4" d="M1967.4,1681.98c-66.53,3.27-87.74-45.6-101.89-91.73-8.13-26.47-13.95-52.06-24.72-66.33-193.26-13.83-229.22-142.83-229.02-237.43.08-56.53,13.08-100.78,13.08-100.78l351.48-252.74c57.29,124.7,32.81,282.92,15.63,358.5-1.75,7.69-3.43,14.55-4.9,20.41-.28,1.12-.56,2.19-.84,3.19-.04.16-.08.32-.12.48-.32,1.12-.6,2.15-.84,3.19-.44,1.63-.84,3.11-1.24,4.5-2.19,7.97-3.59,12.36-3.59,12.36,0,0,36.2,15.39,64.46,77.81,11.52,25.43,21.73,58.68,27.63,101.85.16,1.2.32,2.43.48,3.71.24,2.03.48,4.23.72,6.46.32,3.03.6,6.02.84,9.01.16,1.91.28,3.91.44,5.94.04.32.04.68.08,1,3.95,72.55-20.17,136.3-107.67,140.6Z"/>
    <path class="cls-6" d="M2044.9,1413.41c-35.24,57.13-102.13,149.77-179.39,176.84-8.13-26.47-13.95-52.06-24.72-66.33-193.26-13.83-229.22-142.83-229.02-237.43,0,0,33.92,192.82,229.02,142.24,72.83-18.9,117.76-63.9,145.42-113.65-.04.16-.08.32-.12.48-.32,1.12-.6,2.15-.84,3.19-.44,1.63-.84,3.11-1.24,4.5-2.19,7.97-3.59,12.36-3.59,12.36,0,0,36.2,15.39,64.46,77.81Z"/>
    <path class="cls-11" d="M2075.2,1567.69c-3.07,61.03-31.05,110.5-107.79,114.29-104.72,5.14-97.11-118.88-126.61-158.06,0,0,63.26-4.78,95.28-44.21,31.25-38.47-10.56-34.16,55.89-188.24-1.75,7.69-3.43,14.55-4.9,20.41-.32,1.28-.64,2.51-.96,3.67-.32,1.12-.6,2.15-.84,3.19-.44,1.59-.84,3.11-1.24,4.5-2.19,7.97-3.59,12.36-3.59,12.36,0,0,47,19.97,75.7,106.72,6.78,20.41,12.52,44.53,16.38,72.95.16,1.2.32,2.43.48,3.71.76,6.18,1.44,13.35,1.99,21.41.04.32.04.68.08,1,.48,8.93.56,17.74.12,26.31Z"/>
    <path class="cls-10" d="M2075.2,1567.69c-3.07,61.03-31.05,110.5-107.79,114.29-104.72,5.14-97.11-118.88-126.61-158.06,0,0,63.26-4.78,95.28-44.21,31.25-38.47-10.56-34.16,55.89-188.24-1.75,7.69-3.43,14.55-4.9,20.41-.32,1.28-.64,2.51-.96,3.67-.32,1.12-.6,2.15-.84,3.19-.44,1.59-.84,3.11-1.24,4.5-2.19,7.97-3.59,12.36-3.59,12.36,0,0,47,19.97,75.7,106.72-50.83-5.54-121.07,46.6-140.48,99.9-14.55,39.86,3.75,103.17,64.78,97.07,45.8-4.55,79.01-46.76,94.76-71.6Z"/>
    <path class="cls-3" d="M1632.5,1192.64c-23.55,172.37,15.94,302.49,209.42,320.05,13.65.93,18.73,18.9,23.27,28.2,15.54,39.51,21.07,95.18,56.53,119.35,27.83,17.94,72.8,11.76,99.65-5.62,41.67-29.08,41.39-88.3,34.98-135.14-7.51-50.87-22.24-103.53-56.13-142.75-7.51-8.46-16.56-16.75-26.03-21.78l-8.95-19.51c4.67-15.37,8.79-32,12.39-48.27,20.63-97.21,28.32-200.48,1.18-296.97-4.63-15.73-10.36-31.03-16.97-45.89-3.82-8.07-.23-17.78,7.94-21.39,8.05-3.58,17.46.03,21.04,8.08,7.31,16.39,13.58,33.18,18.61,50.28,14.7,50.94,19.59,104.49,18.51,157.1-1.88,70.25-12.58,139.23-32.3,206.74,0,0-8.95-19.51-8.95-19.51,1.75.72,2.21,1.1,3.63,1.79,63.22,38.95,87.12,118.49,97.62,187.58,12.26,76.7-3.7,165.94-92.05,184.08-74.51,15.8-120.29-18-142.05-88.32-8.9-24.25-12.31-51.28-25.77-72.56-.01,0,11.6,6.31,11.6,6.31-20.41-.91-40.89-3.55-61.18-8.04-62.32-12.7-121.69-49.8-151.9-107.08-39.06-73.85-38.31-164.14-9.37-241.23,3.8-8.84,16.93-4.92,15.3,4.49h0Z"/>
    <g>
      <polygon class="cls-11" points="435.67 1146.27 881.75 1146.27 844.94 1427.75 370.91 1409.68 435.67 1146.27"/>
      <path class="cls-3" d="M844.95,1443.69c-.21,0-.41,0-.62,0l-474.03-18.07c-4.79-.18-9.24-2.51-12.13-6.34-2.89-3.83-3.89-8.75-2.75-13.4l64.76-263.41c1.75-7.13,8.14-12.14,15.48-12.14h446.08c4.59,0,8.96,1.98,11.98,5.42,3.03,3.45,4.42,8.04,3.83,12.59l-36.81,281.48c-1.04,7.96-7.83,13.88-15.8,13.88ZM391.06,1394.49l439.95,16.77,32.57-249.05h-415.42l-57.11,232.28Z"/>
    </g>
    <path class="cls-11" d="M551.31,1120.54s2.93,36.96,22.44,44.49c29.75,11.47,52.87-8.39,64.08-25.25,0,0,26.46,39.51,66.22,20.31,23.25-11.23,31-42.67,31-42.67,0,0-29.99-41.98-103.37-44.32-73.38-2.34-80.38,47.45-80.38,47.45Z"/>
    <path class="cls-7" d="M573.77,1165.01c27.54,14.7,52.87-8.36,64.08-25.23,0,0,30.98,43.76,68.75,23.7,13.29-7.08,16.04-20.3,15.67-31.27-52.35,27.25-90.17-51.18-90.17-51.18-12.45,18.76-42.44,60.86-71.48,59.54.24,9.11,3.12,19.11,13.15,24.45Z"/>
    <path class="cls-3" d="M637.12,1092.06c1.05,10.98,3.86,22.67,8.58,32.67,1.48,3.3,3.33,6.27,5.16,9.08,4.36,6.7,2.46,15.67-4.24,20.04-7.93,5.35-19.31,1.07-21.81-8.13-4.23-13.56-5.17-27.64-3.97-41.58,1.14-6.72,0-20.59,10.45-19.12,3.45.68,5.73,3.7,5.83,7.03h0Z"/>
    <path class="cls-3" d="M695.59,1082.5c-1.73,11.58-42.76,33.86-65.97,33.8-24.91-.07-51.78-20.04-55-31.16-3.77-13.01,16.92-28.8,65.93-27.39,40.08,1.16,56.94,12.05,55.05,24.74Z"/>
    <g class="cls-1">
      <path class="cls-11" d="M639.58,1068.33c.98,3.37-7.71,8.01-14.83,8.41-4.03.23-18.53.87-19.6-2.82-1.07-3.69,2.8-7.37,16.15-9.3,12.14-1.76,17.3.34,18.28,3.71Z"/>
    </g>
    <path class="cls-3" d="M559.88,1119.86c3.09,8.88,6.66,18.56,11.23,25.07,5.21,7.15,6.76,6.91,15.76,8.45,15.84,1.47,29.19-9.26,39.03-21.54l8.06-13.93,15.77,13.89c10.22,11.58,24.63,22.43,40.92,19.22,18.12-2.89,29.72-20,36.32-36.32,3.86-9.45,18.23-5.23,16.42,4.77-10.3,62.57-81.09,82.34-117.47,28.28,0,0,23.83-.05,23.83-.05-16.33,29.83-56.99,47.21-87.69,26.94-12.46-9.33-16.56-22.18-18.76-35.65-.68-8.53-4.38-25.82,8.79-25.72,3.88.31,6.81,3.08,7.78,6.6h0Z"/>
    <path class="cls-3" d="M620.59,1298.97c-2.57,0-5.12-.83-7.25-2.44l-184.92-140.74c-5.25-4-6.27-11.5-2.27-16.76,4-5.26,11.5-6.28,16.76-2.27l178.79,136.07,254.38-137.09c5.81-3.12,13.07-.96,16.2,4.85,3.13,5.82.96,13.07-4.85,16.2l-261.16,140.74c-1.78.96-3.73,1.43-5.67,1.43Z"/>
    <path class="cls-3" d="M370.92,1421.64c-3.7,0-7.35-1.71-9.69-4.93-3.88-5.34-2.69-12.82,2.65-16.7l210.27-152.66c5.34-3.88,12.82-2.7,16.7,2.65,3.88,5.34,2.69,12.82-2.65,16.7l-210.27,152.66c-2.12,1.54-4.58,2.28-7.02,2.28Z"/>
    <path class="cls-3" d="M844.95,1439.71c-3.18,0-6.36-1.26-8.71-3.77l-163.31-173.64c-4.53-4.81-4.29-12.38.52-16.9,4.81-4.53,12.38-4.3,16.9.52l163.31,173.64c4.53,4.81,4.29,12.38-.52,16.9-2.31,2.17-5.25,3.25-8.19,3.25Z"/>
    <g>
      <path class="cls-12" d="M1980.42,1335.59c-19.94,50.65-19.09,51.12-26.07,93.13"/>
      <path class="cls-3" d="M1995.26,1341.43c-10.62,22-21.31,41.74-27.09,65.1l-5.95,23.49c-2.44,9.42-16.48,7.04-15.73-2.62,1.37-15.02,2.4-34.91,5.78-49.66,3.75-16.86,8.68-32.35,13.32-48,7.46-21.72,39.03-9.34,29.68,11.68h0Z"/>
    </g>
    <g>
      <path class="cls-12" d="M1936.06,1479.73s-34.47,43.44-95.28,44.17"/>
      <path class="cls-3" d="M1942.31,1484.68c-12.2,16.05-26.77,28.23-44.19,37.94-17.4,9.84-37.14,15.46-57.15,17.22-8.79.93-16.67-5.45-17.6-14.24-1.15-9.86,7.36-18.5,17.22-17.65,32.4,2.35,66.01-10.62,89.23-33.18,6.74-7.63,18.46,1.68,12.49,9.91h0Z"/>
    </g>
    <path class="cls-3" d="M1130,1470.97c.22,17.41-1.53,36.64-3.45,53.89-.84,8.87-8.72,15.38-17.59,14.54-8.87-.84-15.38-8.72-14.54-17.59,2.27-10.06,8.15-19.64,11.39-28.91,3.07-7.71,5.74-16.13,8.46-24.52,2.84-8.71,15.86-6.47,15.73,2.59h0Z"/>
    <path class="cls-3" d="M1013.68,1502.07c-6.03,20.96-15.42,63.19,10.04,72.94,6.66,2.38,15.97,2.12,25.17.63,8.72-1.38,16.91,4.57,18.3,13.29,1.38,8.72-4.56,16.91-13.29,18.3-7.1.54-14.04.34-21.48-.71-21.32-1.77-42.67-18.51-45.86-40.35-4.32-25.41,2.76-47.67,12.35-70.1,1.83-4.01,6.56-5.78,10.57-3.95,3.81,1.73,5.58,6.1,4.21,9.94h0Z"/>
    <path class="cls-3" d="M941.43,1475.86c-13.11,30.04-21.6,78.59,13.83,95.98,18.51,10.28,3.98,37.8-14.97,28.24-47.46-29.37-38.2-91.27-12.66-132.2,5.5-8.61,18.49-1.06,13.8,7.98h0Z"/>
    <path class="cls-3" d="M2000.68,1564.68c9.62,22.73,32.26,55.72,58.45,33.37,17.23-12.16,35.72,12.66,19.1,25.68-9.96,5.96-21.61,10.21-34.92,9.59-33.25-1.97-50.75-35.75-57.9-64.08-2.28-9.79,11.85-13.95,15.28-4.56h0Z"/>
    <path class="cls-3" d="M1935.59,1593.25c3.17,25.81,13.26,60.85,41.27,67.75,7.73,1.84,16.44,1.01,25.24-1.25,20.51-4.72,28.22,25.21,7.93,30.95-63.12,10.87-91.79-41.53-90.38-97.28.36-10.19,15.36-10.32,15.94-.17h0Z"/>
  </g>
</svg>